<svg xmlns="http://www.w3.org/2000/svg" width="100%" height="100%" viewBox="0 0 1024 1024" role="img" aria-labelledby="title desc">
  <title id="title">Darven Preços Parcelados</title>
  <desc id="desc">Selo laranja sobre fundo creme com o texto Preços Parcelados.</desc>
  <rect width="1024" height="1024" rx="196" fill="#fff3df"/>
  <circle cx="872" cy="152" r="112" fill="#ffd8a8"/>
  <circle cx="152" cy="872" r="136" fill="#ffd8a8"/>
  <path d="M176 238c0-48 39-87 87-87h498c48 0 87 39 87 87v548c0 48-39 87-87 87H263c-48 0-87-39-87-87V238z" fill="#f15a24"/>
  <path d="M176 370h672v416c0 48-39 87-87 87H263c-48 0-87-39-87-87V370z" fill="#ff7214"/>
  <circle cx="250" cy="256" r="30" fill="#fff3df"/>
  <circle cx="774" cy="256" r="30" fill="#fff3df"/>
  <path d="M333 256h358" stroke="#fff3df" stroke-width="28" stroke-linecap="round"/>
  <text x="512" y="527" fill="#32170d" font-family="Arial, Helvetica, sans-serif" font-size="144" font-weight="900" text-anchor="middle" letter-spacing="-6">PREÇOS</text>
  <text x="512" y="675" fill="#32170d" font-family="Arial, Helvetica, sans-serif" font-size="92" font-weight="900" text-anchor="middle" letter-spacing="-4">PARCELADOS</text>
  <path d="M340 752h344" stroke="#32170d" stroke-width="22" stroke-linecap="round"/>
  <circle cx="303" cy="752" r="11" fill="#32170d"/>
  <circle cx="721" cy="752" r="11" fill="#32170d"/>
</svg>
